<?xml version="1.0" encoding="UTF-8"?>
<svg width="313px" height="344px" viewBox="0 0 313 344" version="1.1" xmlns="http://www.w3.org/2000/svg" xmlns:xlink="http://www.w3.org/1999/xlink">
    <!-- Generator: Sketch 59.1 (86144) - https://sketch.com -->
    <title>boca cerrada copy 2</title>
    <desc>Created with Sketch.</desc>
    <g id="boca-cerrada-copy-2" stroke="none" stroke-width="1" fill="none" fill-rule="evenodd">
        <path d="M147.87585,50 C159.652553,50 170.113616,53.0512515 179.259354,59.1538462 C188.405091,65.2564408 194.857124,73.6042044 198.615646,84.1973875 L256.120748,245.512337 C257.373589,248.736349 258,252.190596 258,255.875181 C258,264.626072 254.680022,272.167844 248.039966,278.500726 C241.39991,284.833607 233.193926,288 223.421769,288 C207.635975,288 195.483603,277.176693 186.964286,255.529753 L105.028912,255.529753 C97.261299,277.176693 85.4847728,288 69.6989796,288 C60.6785263,288 52.9736714,285.006319 46.5841837,279.018868 C40.1946959,273.031417 37,265.892639 37,257.602322 C37,254.148023 37.626411,250.924059 38.8792517,247.930334 L97.1360544,84.1973875 C100.894577,73.6042044 107.34661,65.2564408 116.492347,59.1538462 C125.638084,53.0512515 136.099147,50 147.87585,50 Z M146.243421,171.778617 C145.84296,171.977847 145.520841,172.305567 145.328542,172.709403 L130.361809,204.140146 C129.886925,205.137422 130.310407,206.330843 131.307683,206.805727 C131.576284,206.933631 131.870037,207 132.167536,207 L162.771155,207 C163.875725,207 164.771155,206.104569 164.771155,205 C164.771155,204.690861 164.699493,204.38593 164.561795,204.109152 L148.924909,172.678408 C148.432907,171.689465 147.232364,171.286615 146.243421,171.778617 Z" id="Combined-Shape" fill="#D30C7B" fill-rule="nonzero"></path>
        <path d="M147.999793,140 C143.851175,140 139.702557,138.487925 136.240951,135.463776 C134.842037,134.241407 134.587727,131.973762 135.673005,130.398139 C136.757454,128.822049 138.771608,128.535615 140.170107,129.757984 C144.780465,133.785822 151.219535,133.785822 155.829893,129.757984 C157.227978,128.535615 159.242131,128.822049 160.326995,130.398139 C161.412273,131.973762 161.157963,134.241407 159.759049,135.463776 C156.297028,138.487925 152.14841,140 147.999793,140 Z" id="Shape" fill="#000000" fill-rule="nonzero"></path>
        <g id="Group" transform="translate(121.000000, 101.000000)" fill="#000000" fill-rule="nonzero">
            <path d="M3.5,14 C1.56706667,14 0,12.2342248 0,10.0561899 L0,3.9438101 C0,1.76577524 1.56706667,-1.77635684e-15 3.5,-1.77635684e-15 C5.43293333,-1.77635684e-15 7,1.76577524 7,3.9438101 L7,10.0561899 C7,12.2342248 5.43293333,14 3.5,14 Z" id="Shape"></path>
            <path d="M48.5,14 C46.5670667,14 45,12.2342248 45,10.0561899 L45,3.9438101 C45,1.76577524 46.5670667,-1.77635684e-15 48.5,-1.77635684e-15 C50.4329333,-1.77635684e-15 52,1.76577524 52,3.9438101 L52,10.0561899 C52,12.2342248 50.4329333,14 48.5,14 Z" id="Shape"></path>
        </g>
        <path d="M178.311708,84.2299394 C175.340495,78.1006767 170.191359,73.0665859 163.276324,71.2521805 C160.89239,70.6259795 159.499634,68.3066961 160.166996,66.0711963 C160.834939,63.8362406 163.305921,62.5316097 165.693337,63.1561786 C175.363708,65.6936259 183.223495,72.4773802 186.718733,81.3034967 C187.579921,83.479695 186.397239,85.8990835 184.075978,86.7075412 C183.561239,86.8865335 180.141442,88.0050995 178.311708,84.2299394 Z" id="Shape" fill="#FFFFFF" fill-rule="nonzero"></path>
        <g id="Group-2" transform="translate(198.000000, 182.000000)">
            <path d="M63.1347215,54.3282489 C63.1347215,54.3282489 80.8784668,34.7020849 80.8784668,28.543014 C80.8784668,24.7740304 79.7322415,21.2808784 77.4397565,18.0634533 C73.7717804,13.0074996 68.9117851,10.4795607 62.8596247,10.4795607 C59.0082499,10.4795607 55.5237249,11.5826613 52.4059453,13.7888957 L36.0376842,29.3703478 L36.0376842,18.0634533 C36.0376842,13.0994261 34.2724972,8.84789242 30.7420703,5.30872483 C27.2116434,1.76955725 22.9706097,0 18.0188421,0 C13.0670745,0 8.82604081,1.76955725 5.2956139,5.30872483 C1.76518698,8.84789242 0,13.0994261 0,18.0634533 L0,92.247712 C0,97.2117393 1.76518698,101.463273 5.2956139,105.002441 C8.82604081,108.541608 13.0670745,110.311165 18.0188421,110.311165 C22.9706097,110.311165 27.2116434,108.541608 30.7420703,105.002441 C34.2724972,101.463273 36.0376842,97.2117393 36.0376842,92.247712 L36.0376842,79.561928 L66.0776722,109.966443 C69.1037524,111.988824 72.4048813,113 75.9811579,113 C82.4001159,113 87.3976583,110.334173 90.9739349,105.002441 C92.9913217,101.968868 94,98.6136039 94,94.9365467 C94,88.5016965 63.1347215,54.3282489 63.1347215,54.3282489 Z" id="k" fill="#00D75A"></path>
            <path d="M72.1385371,25.6149697 C70.8179978,22.5503384 68.529493,20.033293 65.4561442,19.1260903 C64.3966178,18.8129897 63.777615,17.653348 64.0742205,16.5355982 C64.3710839,15.4181203 65.469298,14.7658049 66.5303719,15.0780893 C70.8283145,16.346813 74.3215535,19.7386901 75.8749926,24.1517483 C76.2577426,25.2398475 75.7321061,26.4495418 74.7004348,26.8537706 C74.4716617,26.9432668 72.951752,27.5025497 72.1385371,25.6149697 Z" id="Shape" fill="#FFFFFF" fill-rule="nonzero"></path>
            <path d="M5.41137839,4.59148893 C1.80377476,8.15359498 0,12.4326842 0,17.4288849 L0,92.0939552 C0,97.0901559 1.80377476,101.369245 5.41137839,104.931351 C8.31562532,107.798971 4.43530004,19.9251313 21.961763,10.2874467 C39.4882259,0.649762057 14.1531361,-4.16908026 5.41137839,4.59148893 Z" id="k" fill="#00AC48"></path>
            <path d="M15,48 C13.8954667,48 13,47.1171124 13,46.028095 L13,42.971905 C13,41.8828876 13.8954667,41 15,41 C16.1045333,41 17,41.8828876 17,42.971905 L17,46.028095 C17,47.1171124 16.1045333,48 15,48 Z" id="Shape" fill="#000000" fill-rule="nonzero"></path>
            <path d="M32.9998726,52 C30.2384751,52 28,49.9847048 28,47.4986234 L28,44.2010554 C28,43.5377791 28.5973344,43 29.3340639,43 L36.6659361,43 C37.4026656,43 38,43.5377791 38,44.2010554 L38,47.4986234 C38,49.9847048 35.7612701,52 32.9998726,52 Z" id="Shape" fill="#000000" fill-rule="nonzero"></path>
            <path d="M50,48 C48.8954667,48 48,47.1171124 48,46.028095 L48,42.971905 C48,41.8828876 48.8954667,41 50,41 C51.1045333,41 52,41.8828876 52,42.971905 L52,46.028095 C52,47.1171124 51.1045333,48 50,48 Z" id="Shape" fill="#000000" fill-rule="nonzero"></path>
        </g>
    </g>
</svg>