<?xml version="1.0" encoding="UTF-8"?>
<svg width="313px" height="344px" viewBox="0 0 313 344" version="1.1" xmlns="http://www.w3.org/2000/svg"
    xmlns:xlink="http://www.w3.org/1999/xlink">
    <!-- Generator: Sketch 51.2 (57519) - http://www.bohemiancoding.com/sketch -->
    <!-- <title>Kidi teachers</title>
    <desc>Created with Sketch.</desc> -->
    <defs></defs>
    <g id="Kidi-teachers" stroke="none" stroke-width="1" fill="none" fill-rule="evenodd">
        <g id="Group" transform="translate(45.000000, 50.000000)">
            <path
                d="M183.967258,0 C194.968677,0 204.391048,3.93016903 212.234652,11.790625 C220.078257,19.651081 224,29.0936949 224,40.11875 C224,51.1438051 220.078257,60.586419 212.234652,68.446875 C204.391048,76.307331 194.968677,80.2375 183.967258,80.2375 L151.879945,80.2375 L151.879945,204.88125 C151.879945,216.110473 148.009134,225.604128 140.267394,233.3625 C132.525655,241.120872 123.052353,245 111.847203,245 C100.845784,245 91.4743452,241.069831 83.7326057,233.209375 C75.9908662,225.348919 72.1200546,215.906305 72.1200546,204.88125 L72.1200546,80.2375 L40.0327422,80.2375 C29.0313229,80.2375 19.6089524,76.307331 11.7653479,68.446875 C3.92174341,60.586419 0,51.1438051 0,40.11875 C0,29.0936949 3.92174341,19.651081 11.7653479,11.790625 C19.6089524,3.93016903 29.0313229,0 40.0327422,0 L183.967258,0 Z"
                id="T" fill="#FB8B24"></path>
            <path
                d="M201.311708,27.2299394 C198.340495,21.1006767 193.191359,16.0665859 186.276324,14.2521805 C183.89239,13.6259795 182.499634,11.3066961 183.166996,9.07119633 C183.834939,6.83624063 186.305921,5.53160972 188.693337,6.15617865 C198.363708,8.69362592 206.223495,15.4773802 209.718733,24.3034967 C210.579921,26.479695 209.397239,28.8990835 207.075978,29.7075412 C206.561239,29.8865335 203.141442,31.0050995 201.311708,27.2299394 Z"
                id="Shape" fill="#FFFFFF" fill-rule="nonzero"></path>
            <path
                d="M76.5,61 C74.5670667,61 73,59.2342248 73,57.0561899 L73,50.9438101 C73,48.7657752 74.5670667,47 76.5,47 C78.4329333,47 80,48.7657752 80,50.9438101 L80,57.0561899 C80,59.2342248 78.4329333,61 76.5,61 Z"
                id="Shape" fill="#000000" fill-rule="nonzero"></path>
            <path
                d="M148.5,61 C146.567067,61 145,59.2342248 145,57.0561899 L145,50.9438101 C145,48.7657752 146.567067,47 148.5,47 C150.432933,47 152,48.7657752 152,50.9438101 L152,57.0561899 C152,59.2342248 150.432933,61 148.5,61 Z"
                id="Shape" fill="#000000" fill-rule="nonzero"></path>
            <path
                d="M113.999793,64 C109.851175,64 105.702557,62.4879254 102.240951,59.4637762 C100.842037,58.2414068 100.587727,55.9737622 101.673005,54.3981393 C102.757454,52.8220492 104.771608,52.5356148 106.170107,53.7579841 C110.780465,57.7858219 117.219535,57.7858219 121.829893,53.7579841 C123.227978,52.5356148 125.242131,52.8220492 126.326995,54.3981393 C127.412273,55.9737622 127.157963,58.2414068 125.759049,59.4637762 C122.297028,62.4879254 118.14841,64 113.999793,64 Z"
                id="Shape" fill="#000000" fill-rule="nonzero"></path>
        </g>
        <g id="Group-2" transform="translate(175.000000, 182.000000)">
            <path
                d="M63.1347215,54.3282489 C63.1347215,54.3282489 80.8784668,34.7020849 80.8784668,28.543014 C80.8784668,24.7740304 79.7322415,21.2808784 77.4397565,18.0634533 C73.7717804,13.0074996 68.9117851,10.4795607 62.8596247,10.4795607 C59.0082499,10.4795607 55.5237249,11.5826613 52.4059453,13.7888957 L36.0376842,29.3703478 L36.0376842,18.0634533 C36.0376842,13.0994261 34.2724972,8.84789242 30.7420703,5.30872483 C27.2116434,1.76955725 22.9706097,0 18.0188421,0 C13.0670745,0 8.82604081,1.76955725 5.2956139,5.30872483 C1.76518698,8.84789242 0,13.0994261 0,18.0634533 L0,92.247712 C0,97.2117393 1.76518698,101.463273 5.2956139,105.002441 C8.82604081,108.541608 13.0670745,110.311165 18.0188421,110.311165 C22.9706097,110.311165 27.2116434,108.541608 30.7420703,105.002441 C34.2724972,101.463273 36.0376842,97.2117393 36.0376842,92.247712 L36.0376842,79.561928 L66.0776722,109.966443 C69.1037524,111.988824 72.4048813,113 75.9811579,113 C82.4001159,113 87.3976583,110.334173 90.9739349,105.002441 C92.9913217,101.968868 94,98.6136039 94,94.9365467 C94,88.5016965 63.1347215,54.3282489 63.1347215,54.3282489 Z"
                id="k" fill="#00D75A"></path>
            <path
                d="M72.1385371,25.6149697 C70.8179978,22.5503384 68.529493,20.033293 65.4561442,19.1260903 C64.3966178,18.8129897 63.777615,17.653348 64.0742205,16.5355982 C64.3710839,15.4181203 65.469298,14.7658049 66.5303719,15.0780893 C70.8283145,16.346813 74.3215535,19.7386901 75.8749926,24.1517483 C76.2577426,25.2398475 75.7321061,26.4495418 74.7004348,26.8537706 C74.4716617,26.9432668 72.951752,27.5025497 72.1385371,25.6149697 Z"
                id="Shape" fill="#FFFFFF" fill-rule="nonzero"></path>
            <path
                d="M6.41137839,5.59148893 C2.80377476,9.15359498 1,13.4326842 1,18.4288849 L1,93.0939552 C1,98.0901559 2.80377476,102.369245 6.41137839,105.931351 C9.31562532,108.798971 5.43530004,20.9251313 22.961763,11.2874467 C40.4882259,1.64976206 15.1531361,-3.16908026 6.41137839,5.59148893 Z"
                id="k" fill="#00AC48"></path>
            <path
                d="M15,48 C13.8954667,48 13,47.1171124 13,46.028095 L13,42.971905 C13,41.8828876 13.8954667,41 15,41 C16.1045333,41 17,41.8828876 17,42.971905 L17,46.028095 C17,47.1171124 16.1045333,48 15,48 Z"
                id="Shape" fill="#000000" fill-rule="nonzero"></path>
            <path
                d="M32.9998726,52 C30.2384751,52 28,49.9847048 28,47.4986234 L28,44.2010554 C28,43.5377791 28.5973344,43 29.3340639,43 L36.6659361,43 C37.4026656,43 38,43.5377791 38,44.2010554 L38,47.4986234 C38,49.9847048 35.7612701,52 32.9998726,52 Z"
                id="Shape" fill="#000000" fill-rule="nonzero"></path>
            <path
                d="M50,48 C48.8954667,48 48,47.1171124 48,46.028095 L48,42.971905 C48,41.8828876 48.8954667,41 50,41 C51.1045333,41 52,41.8828876 52,42.971905 L52,46.028095 C52,47.1171124 51.1045333,48 50,48 Z"
                id="Shape" fill="#000000" fill-rule="nonzero"></path>
        </g>
    </g>
</svg>